<svg id="Capa_1" enable-background="new 0 0 512 512" height="512" viewBox="0 0 512 512" width="512"
 xmlns="http://www.w3.org/2000/svg">
 <g><circle cx="75" cy="75" r="15"/>
 <path d="m497 0h-482c-8.284 0-15 6.716-15 15v482c0 8.284 6.716 15 15 15h482c8.284 0 15-6.716 15-15v-482c0-8.284-6.716-15-15-15zm-15 482h-452v-332h185c5.016 0 9.699-2.507 12.48-6.68l35.547-53.32h218.973zm0-422h-227c-5.016 0-9.699 2.507-12.48 6.68l-35.547 53.32h-176.973v-90h452z" fill="#157EFB"/>
 <circle cx="135" cy="75" r="15" fill="#157EFB"/>
 <circle cx="195" cy="75" r="15" fill="#157EFB"/>
 <path d="m211 196v19.678c-6.81 3.058-13.274 6.804-19.348 11.21l-17.075-9.858c-7.174-4.144-16.349-1.685-20.49 5.49l-30 51.961c-1.989 3.445-2.528 7.54-1.499 11.382 1.03 3.843 3.544 7.119 6.989 9.108l16.992 9.811c-.379 3.723-.569 7.471-.569 11.218s.19 7.495.569 11.219l-16.992 9.811c-3.445 1.989-5.959 5.266-6.989 9.108-1.029 3.842-.49 7.937 1.499 11.382l30 51.961c4.143 7.176 13.317 9.635 20.49 5.49l17.075-9.858c6.073 4.406 12.538 8.152 19.348 11.21v19.677c0 8.284 6.716 15 15 15h60c8.284 0 15-6.716 15-15v-19.678c6.81-3.058 13.274-6.804 19.348-11.21l17.075 9.858c7.173 4.142 16.348 1.683 20.49-5.49l30-51.961c1.989-3.445 2.528-7.54 1.499-11.382-1.03-3.843-3.544-7.119-6.989-9.108l-16.992-9.811c.379-3.723.569-7.471.569-11.218s-.19-7.495-.569-11.219l16.992-9.811c3.445-1.989 5.959-5.266 6.989-9.108 1.029-3.842.49-7.937-1.499-11.382l-30-51.961c-4.143-7.175-13.316-9.633-20.49-5.49l-17.075 9.858c-6.073-4.406-12.538-8.152-19.348-11.21v-19.677c0-8.284-6.716-15-15-15h-60c-8.284 0-15 6.716-15 15zm30 29.911v-14.911h30v14.911c0 6.458 4.134 12.191 10.261 14.231 10.235 3.409 19.572 8.818 27.753 16.079 4.831 4.288 11.864 5.001 17.457 1.771l12.962-7.483 15 25.98-12.855 7.422c-5.589 3.227-8.488 9.667-7.197 15.991 1.075 5.264 1.62 10.679 1.62 16.097s-.545 10.833-1.62 16.097c-1.291 6.324 1.608 12.765 7.197 15.991l12.855 7.422-15 25.98-12.962-7.483c-5.592-3.229-12.627-2.515-17.457 1.771-8.181 7.261-17.518 12.67-27.753 16.079-6.127 2.04-10.261 7.773-10.261 14.231v14.913h-30v-14.911c0-6.458-4.134-12.191-10.261-14.231-10.235-3.409-19.572-8.818-27.753-16.079-4.831-4.288-11.864-5.001-17.457-1.771l-12.962 7.483-15-25.98 12.855-7.422c5.589-3.227 8.488-9.667 7.197-15.991-1.074-5.265-1.619-10.68-1.619-16.098s.545-10.833 1.62-16.097c1.291-6.324-1.608-12.765-7.197-15.991l-12.855-7.422 15-25.98 12.962 7.483c5.593 3.229 12.627 2.516 17.457-1.771 8.181-7.261 17.518-12.67 27.753-16.079 6.126-2.04 10.26-7.774 10.26-14.232z" fill="#157EFB"/>
 <path d="m256 371c30.327 0 55-24.673 55-55s-24.673-55-55-55-55 24.673-55 55 24.673 55 55 55zm0-80c13.785 0 25 11.215 25 25s-11.215 25-25 25-25-11.215-25-25 11.215-25 25-25z" fill="#157EFB"/>
 </g></svg>